HIERARCHY
ROOT Hips
{
	OFFSET 0.000000 0.000000 0.000000 
	CHANNELS 6 Xposition Yposition Zposition Zrotation Yrotation Xrotation
	JOINT LHipJoint
	{
		OFFSET 0.000000 0.000000 0.000000 
		CHANNELS 3 Zrotation Yrotation Xrotation
		JOINT LeftUpLeg
		{
			OFFSET 1.091560 -1.614060 0.765000 
			CHANNELS 3 Zrotation Yrotation Xrotation
			JOINT LeftLeg
			{
				OFFSET 2.337500 -6.422250 0.000000 
				CHANNELS 3 Zrotation Yrotation Xrotation
				JOINT LeftFoot
				{
					OFFSET 2.492470 -6.848000 0.000000 
					CHANNELS 3 Zrotation Yrotation Xrotation
					JOINT LeftToeBase
					{
						OFFSET 0.153120 -0.420690 1.454610 
						CHANNELS 3 Zrotation Yrotation Xrotation
						End Site
						{
							OFFSET 0.000000 -0.000000 0.770460 
						}
					}
				}
			}
		}
	}
	JOINT RHipJoint
	{
		OFFSET 0.000000 0.000000 0.000000 
		CHANNELS 3 Zrotation Yrotation Xrotation
		JOINT RightUpLeg
		{
			OFFSET -0.998830 -1.614060 0.765000 
			CHANNELS 3 Zrotation Yrotation Xrotation
			JOINT RightLeg
			{
				OFFSET -2.368770 -6.508150 0.000000 
				CHANNELS 3 Zrotation Yrotation Xrotation
				JOINT RightFoot
				{
					OFFSET -2.534520 -6.963530 0.000000 
					CHANNELS 3 Zrotation Yrotation Xrotation
					JOINT RightToeBase
					{
						OFFSET -0.131560 -0.361450 1.632370 
						CHANNELS 3 Zrotation Yrotation Xrotation
						End Site
						{
							OFFSET -0.000000 -0.000000 0.849790 
						}
					}
				}
			}
		}
	}
	JOINT LowerBack
	{
		OFFSET 0.000000 0.000000 0.000000 
		CHANNELS 3 Zrotation Yrotation Xrotation
		JOINT Spine
		{
			OFFSET -0.024310 1.982420 -0.136160 
			CHANNELS 3 Zrotation Yrotation Xrotation
			JOINT Spine1
			{
				OFFSET 0.036290 1.989740 -0.029540 
				CHANNELS 3 Zrotation Yrotation Xrotation
				JOINT Neck
				{
					OFFSET 0.000000 0.000000 0.000000 
					CHANNELS 3 Zrotation Yrotation Xrotation
					JOINT Neck1
					{
						OFFSET 0.093490 1.407830 0.223330 
						CHANNELS 3 Zrotation Yrotation Xrotation
						JOINT Head
						{
							OFFSET -0.042730 1.445000 -0.064950 
							CHANNELS 3 Zrotation Yrotation Xrotation
							End Site
							{
								OFFSET -0.022510 1.446000 -0.045440 
							}
						}
					}
				}
				JOINT LeftShoulder
				{
					OFFSET 0.000000 0.000000 0.000000 
					CHANNELS 3 Zrotation Yrotation Xrotation
					JOINT LeftArm
					{
						OFFSET 3.491370 0.851260 -0.297400 
						CHANNELS 3 Zrotation Yrotation Xrotation
						JOINT LeftForeArm
						{
							OFFSET 5.060350 -0.000000 0.000000 
							CHANNELS 3 Zrotation Yrotation Xrotation
							JOINT LeftHand
							{
								OFFSET 3.147800 -0.000000 0.000000 
								CHANNELS 3 Zrotation Yrotation Xrotation
								JOINT LeftFingerBase
								{
									OFFSET 0.000000 0.000000 0.000000 
									CHANNELS 3 Zrotation Yrotation Xrotation
									JOINT LeftHandIndex1
									{
										OFFSET 0.606750 -0.000000 0.000000 
										CHANNELS 3 Zrotation Yrotation Xrotation
										End Site
										{
											OFFSET 0.489180 -0.000000 0.000000 
										}
									}
								}
								JOINT LThumb
								{
									OFFSET 0.000000 0.000000 0.000000 
									CHANNELS 3 Zrotation Yrotation Xrotation
									End Site
									{
										OFFSET 0.496640 -0.000000 0.496640 
									}
								}
							}
						}
					}
				}
				JOINT RightShoulder
				{
					OFFSET 0.000000 0.000000 0.000000 
					CHANNELS 3 Zrotation Yrotation Xrotation
					JOINT RightArm
					{
						OFFSET -3.281010 0.697070 0.007470 
						CHANNELS 3 Zrotation Yrotation Xrotation
						JOINT RightForeArm
						{
							OFFSET -5.122730 -0.000000 -0.000000 
							CHANNELS 3 Zrotation Yrotation Xrotation
							JOINT RightHand
							{
								OFFSET -3.422000 -0.000000 0.000000 
								CHANNELS 3 Zrotation Yrotation Xrotation
								JOINT RightFingerBase
								{
									OFFSET 0.000000 0.000000 0.000000 
									CHANNELS 3 Zrotation Yrotation Xrotation
									JOINT RightHandIndex1
									{
										OFFSET -0.704600 -0.000000 0.000000 
										CHANNELS 3 Zrotation Yrotation Xrotation
										End Site
										{
											OFFSET -0.568070 -0.000000 0.000000 
										}
									}
								}
								JOINT RThumb
								{
									OFFSET 0.000000 0.000000 0.000000 
									CHANNELS 3 Zrotation Yrotation Xrotation
									End Site
									{
										OFFSET -0.576740 -0.000000 0.576740 
									}
								}
							}
						}
					}
				}
			}
		}
	}
}
MOTION
Frames: 7
Frame Time: 0.008333
0.000000 15.999995 0.000000 1309.660034 95.803101 1313.170044 0.000000 0.000000 0.000000 -28.248100 6.382300 -2.438100 0.925800 6.129800 17.161600 1.871700 -10.303300 -24.581400 0.069700 -1.702800 -4.685100 0.000000 0.000000 0.000000 10.062900 16.157101 -26.398701 -1.262800 -7.123400 20.081499 0.119500 -12.633200 -16.346201 -0.008600 -0.600300 1.649600 -9.837100 -5.849700 -3.063500 0.426800 -7.464900 -0.726100 5.454100 -3.797000 2.262600 -8.812000 -9.649500 -1.969100 3.652300 -12.716500 3.324700 2.269000 -6.391500 2.275700 -0.000000 0.000000 0.000000 -82.325600 -19.480200 10.537500 14.425600 -23.339800 -2.994600 -0.000000 0.000000 -0.536900 19.351299 45.025501 13.952500 -7.125000 0.000000 -0.000000 -34.666801 74.305298 -24.696699 -0.000000 0.000000 0.000000 88.623497 -1.130300 -6.277700 -5.130200 8.804000 -0.395200 0.000000 0.000000 34.474400 -24.319300 30.458099 -12.902900 7.125000 -0.000000 -0.000000 3.943300 2.786000 4.139900 
0.000000 15.999995 0.000000 1309.989990 95.350197 1313.380005 0.000000 0.000000 0.000000 -27.836399 6.416800 -1.676600 0.871300 5.951500 16.643700 1.857900 -10.478900 -24.502001 0.068000 -1.682900 -4.630000 0.000000 0.000000 0.000000 10.543400 15.602700 -26.511299 -1.274500 -7.155000 20.175501 0.047800 -11.980500 -16.384800 -0.011500 -0.692400 1.902900 -9.338900 -5.892800 -2.897400 0.465900 -7.558000 -0.682500 5.230500 -3.839200 2.172800 -8.589300 -9.760500 -2.042600 3.538900 -12.860900 3.248900 2.185500 -6.460700 2.245900 0.000000 0.000000 0.000000 -82.388702 -19.900000 10.178200 13.955600 -22.671200 -2.811000 -0.000000 0.000000 -0.039000 19.699900 44.316200 14.043800 -7.125000 0.000000 -0.000000 -32.518101 73.899597 -22.816700 0.000000 0.000000 0.000000 88.765900 -1.188000 -6.797700 -5.131600 8.806300 -0.395400 0.000000 0.000000 34.914101 -24.460699 30.664499 -13.061700 7.125000 -0.000000 -0.000000 3.894800 3.031600 4.104600 
0.000000 15.999995 0.000000 1313.819946 95.491203 1317.310059 0.000000 0.000000 0.000000 -28.172800 6.239100 -1.228000 0.845400 5.864500 16.391701 1.837100 -10.485900 -24.365700 0.059200 -1.569600 -4.317600 0.000000 0.000000 0.000000 10.245000 15.211500 -26.790400 -1.277500 -7.163000 20.199200 -0.002300 -11.325400 -16.152500 -0.005600 -0.483200 1.327800 -9.580500 -5.928500 -3.165600 0.337300 -7.559500 -0.602900 5.193400 -3.852100 2.419900 -8.531200 -9.864500 -2.251900 3.612500 -12.988800 3.305600 2.180300 -6.521100 2.312200 0.000000 0.000000 0.000000 -82.434700 -20.419300 9.994400 13.505800 -22.023800 -2.639900 -0.000000 -0.000000 0.375800 20.396999 43.292999 14.304500 -7.125000 0.000000 -0.000000 -29.358601 73.349998 -20.165001 0.000000 0.000000 0.000000 88.874901 -1.449400 -4.353700 -5.394600 9.248800 -0.436700 0.000000 0.000000 32.367500 -24.118299 30.419701 -12.772300 7.125000 -0.000000 -0.000000 4.052300 2.701200 4.249300 
0.000000 15.999995 0.000000 1319.530029 95.880302 1323.099976 0.000000 0.000000 0.000000 -28.796600 6.253200 -0.824900 0.818800 5.774000 16.130100 1.810300 -10.634400 -24.198700 0.052400 -1.477900 -4.064800 0.000000 0.000000 0.000000 9.650300 14.753800 -27.122801 -1.289900 -7.196500 20.298800 -0.015800 -10.850000 -15.681600 -0.000100 -0.066500 0.182600 -10.158400 -5.988600 -3.385700 0.150800 -7.581400 -0.557500 5.283100 -3.874900 2.643300 -8.602100 -9.886600 -2.222100 3.798300 -13.026600 3.243200 2.253200 -6.537300 2.310000 -0.000000 -0.000000 0.000000 -82.580101 -20.894199 9.800000 13.069500 -21.388901 -2.478600 -0.000000 -0.000000 0.860200 19.655500 44.351601 14.019400 -7.125000 0.000000 -0.000000 -32.654598 73.910500 -22.924801 -0.000000 -0.000000 0.000000 88.910004 -1.564000 -2.533900 -5.539300 9.491700 -0.460200 0.000000 0.000000 30.514099 -23.775400 30.049101 -12.440100 7.125000 -0.000000 -0.000000 4.192800 2.241900 4.365100 
0.000000 15.999995 0.000000 1320.619995 95.541298 1323.979980 0.000000 0.000000 0.000000 -28.321899 6.506600 -0.160600 0.796000 5.694900 15.901600 1.828100 -10.731500 -24.323601 0.054400 -1.505100 -4.139800 0.000000 0.000000 0.000000 9.879600 15.458300 -26.372499 -1.310800 -7.252300 20.465000 -0.071400 -10.799900 -16.403200 -0.012900 -0.733100 2.014700 -10.173200 -6.034100 -3.149900 0.316600 -7.678500 -0.612200 5.482500 -3.918300 2.495300 -8.569700 -10.065100 -2.071500 3.462200 -13.262400 3.236100 2.134600 -6.661100 2.264400 -0.000000 0.000000 0.000000 -82.960403 -20.902201 9.306300 12.684800 -20.823601 -2.340000 -0.000000 -0.000000 1.536900 19.878000 44.096100 14.122300 -7.125000 0.000000 -0.000000 -31.789499 73.795403 -22.211500 -0.000000 0.000000 0.000000 88.825104 -1.987400 -1.780400 -5.617800 9.623200 -0.473300 0.000000 0.000000 29.785900 -23.900801 30.211399 -12.570900 7.125000 -0.000000 -0.000000 4.145200 2.437400 4.328900 
0.000000 15.999995 0.000000 1325.810059 95.293297 1329.170044 0.000000 0.000000 0.000000 -28.250401 6.483400 0.357100 0.776900 5.627600 15.707700 1.840100 -10.942200 -24.418900 0.053600 -1.493600 -4.108000 0.000000 0.000000 0.000000 9.799600 14.925500 -26.441999 -1.333200 -7.311500 20.641600 -0.153000 -9.770000 -16.216700 -0.009500 -0.628100 1.726000 -9.987500 -6.138800 -3.044800 0.329800 -7.841200 -0.690300 5.396200 -3.989200 2.359800 -8.499600 -10.238200 -2.429700 2.991500 -13.446100 3.827700 1.926700 -6.764200 2.492500 0.000000 -0.000000 0.000000 -83.326302 -20.974199 9.071300 12.283800 -20.228800 -2.199400 -0.000000 -0.000000 2.093600 19.712799 44.169800 14.018000 -7.125000 0.000000 -0.000000 -32.156399 73.791901 -22.478600 0.000000 -0.000000 0.000000 88.847702 -2.319600 -1.970300 -5.669900 9.710400 -0.482000 0.000000 0.000000 29.827900 -24.096701 30.722500 -12.870700 7.125000 -0.000000 -0.000000 4.111600 3.009200 4.332700 
0.000000 15.999995 0.000000 1329.760010 95.077003 1333.189941 0.000000 0.000000 0.000000 -28.072599 6.275200 0.651000 0.788500 5.668400 15.825200 1.850900 -11.065300 -24.499001 0.049600 -1.436800 -3.951600 0.000000 0.000000 0.000000 9.798000 14.953400 -26.263300 -1.334700 -7.315300 20.652901 -0.159000 -9.354900 -15.799500 -0.005000 -0.455300 1.251200 -9.782300 -6.142100 -3.254700 0.314100 -7.827400 -0.668800 5.245500 -3.985500 2.467800 -8.925700 -10.325800 -1.729100 3.684500 -13.637200 3.145300 2.265300 -6.850800 2.246100 -0.000000 0.000000 0.000000 -83.600800 -21.293301 9.228100 11.762100 -19.446899 -2.022400 -0.000000 -0.000000 2.516500 20.221600 43.825901 14.309600 -7.125000 0.000000 -0.000000 -30.757200 73.709999 -21.401600 -0.000000 0.000000 0.000000 89.030296 -2.435800 -2.162000 -5.753700 9.850800 -0.496300 0.000000 0.000000 29.723400 -23.920700 30.690901 -12.756800 7.125000 -0.000000 -0.000000 4.207200 2.937200 4.428900 
